<?xml version="1.0" encoding="utf-8"?>
<!-- Generator: Adobe Illustrator 25.4.1, SVG Export Plug-In . SVG Version: 6.00 Build 0)  -->
<svg version="1.1" id="Layer_1" xmlns="http://www.w3.org/2000/svg" xmlns:xlink="http://www.w3.org/1999/xlink" x="0px" y="0px"
	 viewBox="0 0 46.9 46.9" style="enable-background:new 0 0 46.9 46.9;" xml:space="preserve">
<style type="text/css">
	.st0{fill-rule:evenodd;clip-rule:evenodd;}
	.st1{clip-path:url(#SVGID_00000170261891528927739360000017289495245294483903_);}
	.st2{fill-rule:evenodd;clip-rule:evenodd;fill:none;stroke:#FFFFFF;stroke-width:2.9262;stroke-miterlimit:22.9256;}
	.st3{fill-rule:evenodd;clip-rule:evenodd;fill:none;stroke:#FFFFFF;stroke-width:2.9259;stroke-miterlimit:22.9256;}
</style>
<path class="st0" d="M34.8,8.6c8.2,6.3,9.7,18,3.4,26.2c-6.3,8.2-18,9.7-26.2,3.4c-8.2-6.3-9.7-18-3.4-26.2
	C14.9,3.9,26.6,2.4,34.8,8.6z"/>
<g>
	<defs>
		<path id="SVGID_1_" d="M34.8,8.6c8.2,6.3,9.7,18,3.4,26.2c-6.3,8.2-18,9.7-26.2,3.4c-8.2-6.3-9.7-18-3.4-26.2
			C14.9,3.9,26.6,2.4,34.8,8.6z"/>
	</defs>
	<clipPath id="SVGID_00000036948335755348526680000010787955438833330612_">
		<use xlink:href="#SVGID_1_"  style="overflow:visible;"/>
	</clipPath>
	<g style="clip-path:url(#SVGID_00000036948335755348526680000010787955438833330612_);">
		<g>
			<g>
				<path class="st2" d="M13.7,5.8l1.2,9.6c0.1,0.8-0.5,1.6-1.3,1.7l-9.6,1.2"/>
				<path class="st3" d="M19.6,3.6l1.8,14.9c0.2,2-1.2,3.8-3.2,4l-15,1.9"/>
			</g>
			<g>
				<path class="st2" d="M43.6,23.5l-9-3.6c-0.8-0.3-1.2-1.2-0.8-2l3.6-9"/>
				<path class="st2" d="M42.6,29.7l-14-5.6c-1.8-0.7-2.7-2.9-2-4.7l5.7-14"/>
			</g>
			<g>
				<path class="st2" d="M12.9,40.6l7.8-5.8c0.7-0.5,1.6-0.4,2.1,0.3l5.8,7.8"/>
				<path class="st2" d="M8.1,36.6l12.1-9c1.6-1.2,3.9-0.9,5.1,0.7l9,12.1"/>
			</g>
		</g>
	</g>
</g>
<path class="st0" d="M56.8,23.7c0,4.8,1.9,7.2,5.6,7.2c3.7,0,5.6-2.4,5.6-7.2c0-4.7-1.9-7-5.6-7C58.7,16.6,56.8,19,56.8,23.7
	L56.8,23.7z M51,23.8c0-7.7,3.8-11.6,11.4-11.6c7.6,0,11.4,3.9,11.4,11.6c0,7.7-3.8,11.5-11.4,11.5C54.8,35.3,51,31.4,51,23.8
	L51,23.8z M81.3,3.9v4.6h-5.8V3.9H81.3L81.3,3.9z M81.3,12.3v23h-5.8v-23H81.3L81.3,12.3z M101.1,34.6c-1.9,0.4-3.9,0.7-5.9,0.7
	c-8.2,0-12.3-4-12.3-11.9c0-7.4,4.1-11.1,12.3-11.1c2,0,4,0.2,5.9,0.7v4.6c-1.9-0.4-3.7-0.7-5.5-0.7c-4.6,0-6.9,2.2-6.9,6.5
	c0,4.9,2.3,7.3,6.9,7.3c1.8,0,3.6-0.2,5.5-0.7V34.6L101.1,34.6z M102.3,35.2V3.9h5.8v11.3c1.8-2,4.1-2.9,6.9-2.9
	c5.4,0,8.2,2.8,8.2,8.5v14.5h-5.8V20.8c0-2.5-1.3-3.8-3.8-3.8c-1.9,0-3.7,0.7-5.5,2.3v16H102.3L102.3,35.2z M135.7,12.3
	c7,0,10.5,3.6,10.5,10.7c0,0.9-0.1,1.9-0.2,2.8h-15.3c0,3.2,2.4,4.9,7.1,4.9c2.3,0,4.6-0.2,7-0.7v4.6c-2,0.4-4.5,0.7-7.4,0.7
	c-8.3,0-12.5-3.9-12.5-11.8C124.9,16,128.5,12.3,135.7,12.3L135.7,12.3z M130.7,21.8h9.8v-0.2c0-3.2-1.6-4.8-4.8-4.8
	C132.6,16.8,131,18.5,130.7,21.8L130.7,21.8z M147.9,34.1v-4.8c2.6,1,5.5,1.5,8.8,1.5c2.5,0,3.7-0.8,3.7-2.4c0-1.5-0.8-2.3-2.5-2.3
	h-4.2c-4.7,0-7-2.3-7-6.9c0-4.8,3.4-7.2,10.2-7.2c2.9,0,5.6,0.4,8.2,1.3v4.8c-2.6-1-5.3-1.5-8.3-1.5c-3.1,0-4.7,0.8-4.7,2.4
	c0,1.5,0.9,2.3,2.7,2.3h3.7c5.1,0,7.7,2.3,7.7,6.9c0,4.8-3.2,7.2-9.8,7.2C153.3,35.5,150.4,35,147.9,34.1z"/>
</svg>
